<svg width="20" height="20" viewBox="0 0 20 20" fill="none" xmlns="http://www.w3.org/2000/svg">
<g clip-path="url(#clip0_325_453)">
<path d="M12.4999 20H7.49994V17.0725C6.63099 16.7651 5.82616 16.3001 5.12578 15.7008L2.58911 17.1667L0.0891113 12.8333L2.62494 11.3708C2.45837 10.4645 2.45837 9.53546 2.62494 8.62917L0.0891113 7.16667L2.58911 2.83333L5.12578 4.29917C5.82616 3.69994 6.63099 3.23495 7.49994 2.9275V0H12.4999V2.9275C13.3689 3.23495 14.1737 3.69994 14.8741 4.29917L17.4108 2.83333L19.9108 7.16667L17.3749 8.62917C17.5415 9.53546 17.5415 10.4645 17.3749 11.3708L19.9108 12.8333L17.4108 17.1667L14.8741 15.7017C14.1737 16.3006 13.3688 16.7653 12.4999 17.0725V20ZM9.16661 18.3333H10.8333V15.8108L11.4591 15.6492C12.4858 15.3832 13.4203 14.8418 14.1616 14.0833L14.6141 13.6225L16.7999 14.885L17.6333 13.4417L15.4499 12.1808L15.6216 11.5592C15.9038 10.5366 15.9038 9.45672 15.6216 8.43417L15.4499 7.8125L17.6333 6.55167L16.7999 5.10833L14.6141 6.37417L14.1616 5.91667C13.4199 5.15945 12.4854 4.61918 11.4591 4.35417L10.8333 4.18917V1.66667H9.16661V4.18917L8.54078 4.35083C7.5141 4.61679 6.57962 5.15824 5.83828 5.91667L5.38578 6.3775L3.19994 5.11167L2.36661 6.555L4.54994 7.81583L4.37828 8.4375C4.09608 9.46005 4.09608 10.5399 4.37828 11.5625L4.54994 12.1842L2.36661 13.445L3.19994 14.8883L5.38578 13.6258L5.83828 14.0867C6.58002 14.8439 7.51447 15.3841 8.54078 15.6492L9.16661 15.8108V18.3333ZM9.99994 13.3333C9.34067 13.3333 8.69621 13.1378 8.14804 12.7716C7.59988 12.4053 7.17264 11.8847 6.92035 11.2756C6.66805 10.6665 6.60204 9.9963 6.73066 9.3497C6.85928 8.7031 7.17675 8.10915 7.64292 7.64298C8.1091 7.1768 8.70304 6.85933 9.34964 6.73072C9.99625 6.6021 10.6665 6.66811 11.2756 6.9204C11.8846 7.17269 12.4052 7.59994 12.7715 8.1481C13.1378 8.69626 13.3333 9.34073 13.3333 10C13.3333 10.8841 12.9821 11.7319 12.357 12.357C11.7318 12.9821 10.884 13.3333 9.99994 13.3333ZM9.99994 8.33333C9.67031 8.33333 9.34808 8.43108 9.07399 8.61422C8.79991 8.79735 8.58629 9.05765 8.46014 9.36219C8.334 9.66674 8.30099 10.0018 8.3653 10.3252C8.42961 10.6485 8.58835 10.9454 8.82143 11.1785C9.05452 11.4116 9.35149 11.5703 9.67479 11.6346C9.9981 11.699 10.3332 11.6659 10.6378 11.5398C10.9423 11.4137 11.2026 11.2 11.3857 10.926C11.5689 10.6519 11.6666 10.3296 11.6666 10C11.6666 9.55797 11.491 9.13405 11.1785 8.82149C10.8659 8.50893 10.442 8.33333 9.99994 8.33333Z" fill="white"/>
</g>
<defs>
<clipPath id="clip0_325_453">
<rect width="20" height="20" fill="white"/>
</clipPath>
</defs>
</svg>
