<svg width="20" height="20" viewBox="0 0 20 20" fill="none" xmlns="http://www.w3.org/2000/svg">
<g clip-path="url(#clip0_325_447)">
<path d="M9.16669 19.975C6.74217 19.975 4.41695 19.0118 2.70256 17.2975C0.988161 15.5831 0.0250244 13.2578 0.0250244 10.8333C0.0250244 8.4088 0.988161 6.08358 2.70256 4.36918C4.41695 2.65479 6.74217 1.69165 9.16669 1.69165H10L10.0109 2.52498L10 9.99998H18.3084V10.8333C18.3057 13.257 17.3417 15.5807 15.6279 17.2945C13.9141 19.0083 11.5904 19.9723 9.16669 19.975ZM8.34336 3.40415C6.94416 3.55935 5.61724 4.10651 4.51532 4.98264C3.4134 5.85878 2.5813 7.02828 2.11479 8.35651C1.64827 9.68474 1.56632 11.1177 1.87836 12.4905C2.19041 13.8632 2.88376 15.12 3.8786 16.116C4.87345 17.1121 6.12934 17.8069 7.50172 18.1206C8.8741 18.4343 10.3072 18.3541 11.636 17.8892C12.9648 17.4243 14.1353 16.5936 15.0127 15.4928C15.8902 14.3919 16.439 13.0657 16.5959 11.6667H8.33336L8.34336 3.40415Z" fill="white"/>
<path d="M13.3492 1.90665C14.4939 2.20613 15.5382 2.80486 16.375 3.64138C17.2119 4.4779 17.811 5.52206 18.1108 6.66665H13.3492V1.90665ZM11.6825 0.0283203V8.33332H19.9892C19.9784 6.13372 19.0998 4.02729 17.5442 2.47207C15.9887 0.916859 13.8821 0.0386169 11.6825 0.0283203Z" fill="white"/>
</g>
<defs>
<clipPath id="clip0_325_447">
<rect width="20" height="20" fill="white"/>
</clipPath>
</defs>
</svg>
