<svg width="20" height="20" viewBox="0 0 20 20" fill="none" xmlns="http://www.w3.org/2000/svg">
<g clip-path="url(#clip0_325_442)">
<path d="M16.6666 0H4.16663C2.78829 0 1.66663 1.12167 1.66663 2.5V17.5C1.66663 18.8783 2.78829 20 4.16663 20H18.3333V1.66667C18.3333 0.7475 17.5858 0 16.6666 0ZM16.6666 15H6.66663V1.66667H9.99996V9.16667L12.0833 7.08333L14.1666 9.16667V1.66667H16.6666V15ZM4.16663 1.66667H4.99996V15H4.16663C3.87413 15 3.59413 15.0508 3.33329 15.1433V2.5C3.33329 2.04083 3.70746 1.66667 4.16663 1.66667ZM4.16663 18.3333C3.70746 18.3333 3.33329 17.9592 3.33329 17.5C3.33329 17.0408 3.70746 16.6667 4.16663 16.6667H16.6666V18.3333H4.16663Z" fill="white"/>
</g>
<defs>
<clipPath id="clip0_325_442">
<rect width="20" height="20" fill="white"/>
</clipPath>
</defs>
</svg>
