<svg width="20" height="20" viewBox="0 0 20 20" fill="none" xmlns="http://www.w3.org/2000/svg">
<g clip-path="url(#clip0_325_172)">
<path d="M18.3334 3.33333H14.1667V1.66667C14.1667 1.22464 13.9911 0.800716 13.6785 0.488155C13.366 0.175595 12.942 0 12.5 0L7.50002 0C7.05799 0 6.63407 0.175595 6.32151 0.488155C6.00895 0.800716 5.83335 1.22464 5.83335 1.66667V3.33333H1.66669V5H3.33335V17.5C3.33335 18.163 3.59675 18.7989 4.06559 19.2678C4.53443 19.7366 5.17031 20 5.83335 20H14.1667C14.8297 20 15.4656 19.7366 15.9345 19.2678C16.4033 18.7989 16.6667 18.163 16.6667 17.5V5H18.3334V3.33333ZM7.50002 1.66667H12.5V3.33333H7.50002V1.66667ZM15 17.5C15 17.721 14.9122 17.933 14.7559 18.0893C14.5997 18.2455 14.3877 18.3333 14.1667 18.3333H5.83335C5.61234 18.3333 5.40038 18.2455 5.2441 18.0893C5.08782 17.933 5.00002 17.721 5.00002 17.5V5H15V17.5Z" fill="white"/>
<path d="M9.16667 8.33331H7.5V15H9.16667V8.33331Z" fill="white"/>
<path d="M12.5 8.33331H10.8334V15H12.5V8.33331Z" fill="white"/>
</g>
<defs>
<clipPath id="clip0_325_172">
<rect width="20" height="20" fill="white"/>
</clipPath>
</defs>
</svg>
