<svg width="20" height="20" viewBox="0 0 20 20" fill="none" xmlns="http://www.w3.org/2000/svg">
<g clip-path="url(#clip0_325_169)">
<path d="M5.83335 10H14.1667V11.6667H5.83335V10ZM5.83335 15H11.6667V13.3333H5.83335V15ZM18.3334 6.32167V20H1.66669V2.5C1.66669 1.83696 1.93008 1.20107 2.39892 0.732233C2.86776 0.263392 3.50365 0 4.16669 0L12.0117 0L18.3334 6.32167ZM12.5 5.83333H15.4884L12.5 2.845V5.83333ZM16.6667 18.3333V7.5H10.8334V1.66667H4.16669C3.94567 1.66667 3.73371 1.75446 3.57743 1.91074C3.42115 2.06702 3.33335 2.27899 3.33335 2.5V18.3333H16.6667Z" fill="white"/>
</g>
<defs>
<clipPath id="clip0_325_169">
<rect width="20" height="20" fill="white"/>
</clipPath>
</defs>
</svg>
