<svg width="110" height="110" viewBox="0 0 110 110" fill="none" xmlns="http://www.w3.org/2000/svg">
<g clip-path="url(#clip0_325_119)">
<path d="M68.75 110L41.25 89.375V65.9083L4.58331 24.6583V13.75C4.58331 10.1033 6.03197 6.60591 8.61059 4.02728C11.1892 1.44866 14.6866 0 18.3333 0L91.6666 0C95.3134 0 98.8107 1.44866 101.389 4.02728C103.968 6.60591 105.417 10.1033 105.417 13.75V24.6583L68.75 65.9083V110ZM50.4166 84.7917L59.5833 91.6667V62.425L96.25 21.175V13.75C96.25 12.5344 95.7671 11.3686 94.9075 10.5091C94.048 9.64955 92.8822 9.16667 91.6666 9.16667H18.3333C17.1177 9.16667 15.9519 9.64955 15.0924 10.5091C14.2329 11.3686 13.75 12.5344 13.75 13.75V21.175L50.4166 62.425V84.7917Z" fill="white" fill-opacity="0.8"/>
</g>
<defs>
<clipPath id="clip0_325_119">
<rect width="110" height="110" fill="white"/>
</clipPath>
</defs>
</svg>
