<svg width="20" height="20" viewBox="0 0 20 20" fill="none" xmlns="http://www.w3.org/2000/svg">
<g clip-path="url(#clip0_325_427)">
<path d="M5.83329 10H14.1666V11.6667H5.83329V10ZM5.83329 15H11.6666V13.3333H5.83329V15ZM18.3333 6.32167V20H1.66663V2.5C1.66663 1.83696 1.93002 1.20107 2.39886 0.732233C2.8677 0.263392 3.50358 0 4.16663 0L12.0116 0L18.3333 6.32167ZM12.5 5.83333H15.4883L12.5 2.845V5.83333ZM16.6666 18.3333V7.5H10.8333V1.66667H4.16663C3.94561 1.66667 3.73365 1.75446 3.57737 1.91074C3.42109 2.06702 3.33329 2.27899 3.33329 2.5V18.3333H16.6666Z" fill="white"/>
</g>
<defs>
<clipPath id="clip0_325_427">
<rect width="20" height="20" fill="white"/>
</clipPath>
</defs>
</svg>
